<mxfile host="app.diagrams.net" modified="2022-12-02T09:24:33.024Z" agent="5.0 (Windows NT 10.0; Win64; x64) AppleWebKit/537.36 (KHTML, like Gecko) Chrome/107.0.0.0 Safari/537.36" etag="9JAKv-nJmLBMPhKmwFJ7" version="20.6.0" type="github">
  <diagram name="Page-1" id="74e2e168-ea6b-b213-b513-2b3c1d86103e">
    <mxGraphModel dx="2020" dy="513" grid="1" gridSize="10" guides="1" tooltips="1" connect="1" arrows="1" fold="1" page="1" pageScale="1" pageWidth="1100" pageHeight="850" background="none" math="0" shadow="0">
      <root>
        <mxCell id="0" />
        <mxCell id="1" parent="0" />
        <mxCell id="77e6c97f196da883-1" value="YusurRickcop" style="swimlane;html=1;childLayout=stackLayout;startSize=20;rounded=0;shadow=0;labelBackgroundColor=none;strokeWidth=1;fontFamily=Verdana;fontSize=8;align=center;" parent="1" vertex="1">
          <mxGeometry x="-10" y="700" width="980" height="2480" as="geometry" />
        </mxCell>
        <mxCell id="77e6c97f196da883-2" value="main" style="swimlane;html=1;startSize=20;" parent="77e6c97f196da883-1" vertex="1">
          <mxGeometry y="20" width="160" height="2460" as="geometry">
            <mxRectangle y="20" width="40" height="730" as="alternateBounds" />
          </mxGeometry>
        </mxCell>
        <mxCell id="77e6c97f196da883-8" value="没有已运行程序" style="rounded=1;whiteSpace=wrap;html=1;shadow=0;labelBackgroundColor=none;strokeWidth=1;fontFamily=Verdana;fontSize=8;align=center;" parent="77e6c97f196da883-2" vertex="1">
          <mxGeometry x="20" y="65" width="100" height="60" as="geometry" />
        </mxCell>
        <mxCell id="77e6c97f196da883-9" value="init" style="rounded=1;whiteSpace=wrap;html=1;shadow=0;labelBackgroundColor=none;strokeWidth=1;fontFamily=Verdana;fontSize=8;align=center;" parent="77e6c97f196da883-2" vertex="1">
          <mxGeometry x="20" y="155" width="100" height="60" as="geometry" />
        </mxCell>
        <mxCell id="77e6c97f196da883-26" style="edgeStyle=orthogonalEdgeStyle;rounded=1;html=1;labelBackgroundColor=none;startArrow=none;startFill=0;startSize=5;endArrow=classicThin;endFill=1;endSize=5;jettySize=auto;orthogonalLoop=1;strokeWidth=1;fontFamily=Verdana;fontSize=8;exitX=0.5;exitY=1;exitDx=0;exitDy=0;entryX=0.5;entryY=0;entryDx=0;entryDy=0;" parent="77e6c97f196da883-2" source="77e6c97f196da883-8" target="77e6c97f196da883-9" edge="1">
          <mxGeometry relative="1" as="geometry">
            <mxPoint x="190" y="95" as="targetPoint" />
          </mxGeometry>
        </mxCell>
        <mxCell id="77e6c97f196da883-7" value="SystemService::init()" style="swimlane;html=1;startSize=20;" parent="77e6c97f196da883-1" vertex="1">
          <mxGeometry x="160" y="20" width="160" height="2460" as="geometry">
            <mxRectangle x="160" y="20" width="40" height="730" as="alternateBounds" />
          </mxGeometry>
        </mxCell>
        <mxCell id="vHzB5KihRxrcfw04qplD-4" value="" style="edgeStyle=orthogonalEdgeStyle;rounded=0;orthogonalLoop=1;jettySize=auto;html=1;" edge="1" parent="77e6c97f196da883-7" source="vHzB5KihRxrcfw04qplD-1" target="vHzB5KihRxrcfw04qplD-3">
          <mxGeometry relative="1" as="geometry" />
        </mxCell>
        <mxCell id="vHzB5KihRxrcfw04qplD-1" value="yaml解析加载配置文件" style="rounded=1;whiteSpace=wrap;html=1;" vertex="1" parent="77e6c97f196da883-7">
          <mxGeometry x="20" y="155" width="120" height="60" as="geometry" />
        </mxCell>
        <mxCell id="vHzB5KihRxrcfw04qplD-6" value="" style="edgeStyle=orthogonalEdgeStyle;rounded=0;orthogonalLoop=1;jettySize=auto;html=1;" edge="1" parent="77e6c97f196da883-7" source="vHzB5KihRxrcfw04qplD-3" target="vHzB5KihRxrcfw04qplD-5">
          <mxGeometry relative="1" as="geometry" />
        </mxCell>
        <mxCell id="vHzB5KihRxrcfw04qplD-3" value="初始化日志模块" style="whiteSpace=wrap;html=1;rounded=1;" vertex="1" parent="77e6c97f196da883-7">
          <mxGeometry x="20" y="250" width="120" height="60" as="geometry" />
        </mxCell>
        <mxCell id="vHzB5KihRxrcfw04qplD-8" value="" style="edgeStyle=orthogonalEdgeStyle;rounded=0;orthogonalLoop=1;jettySize=auto;html=1;" edge="1" parent="77e6c97f196da883-7" source="vHzB5KihRxrcfw04qplD-5" target="vHzB5KihRxrcfw04qplD-7">
          <mxGeometry relative="1" as="geometry" />
        </mxCell>
        <mxCell id="vHzB5KihRxrcfw04qplD-5" value="初始化监控模块" style="whiteSpace=wrap;html=1;rounded=1;" vertex="1" parent="77e6c97f196da883-7">
          <mxGeometry x="20" y="350" width="120" height="60" as="geometry" />
        </mxCell>
        <mxCell id="vHzB5KihRxrcfw04qplD-10" value="" style="edgeStyle=orthogonalEdgeStyle;rounded=0;orthogonalLoop=1;jettySize=auto;html=1;" edge="1" parent="77e6c97f196da883-7" source="vHzB5KihRxrcfw04qplD-7" target="vHzB5KihRxrcfw04qplD-9">
          <mxGeometry relative="1" as="geometry" />
        </mxCell>
        <mxCell id="vHzB5KihRxrcfw04qplD-7" value="初始化pipeline" style="whiteSpace=wrap;html=1;rounded=1;" vertex="1" parent="77e6c97f196da883-7">
          <mxGeometry x="20" y="450" width="120" height="60" as="geometry" />
        </mxCell>
        <mxCell id="vHzB5KihRxrcfw04qplD-39" value="" style="edgeStyle=orthogonalEdgeStyle;rounded=0;orthogonalLoop=1;jettySize=auto;html=1;" edge="1" parent="77e6c97f196da883-7" source="vHzB5KihRxrcfw04qplD-9" target="vHzB5KihRxrcfw04qplD-38">
          <mxGeometry relative="1" as="geometry" />
        </mxCell>
        <mxCell id="vHzB5KihRxrcfw04qplD-9" value="初始化数据模块" style="whiteSpace=wrap;html=1;rounded=1;" vertex="1" parent="77e6c97f196da883-7">
          <mxGeometry x="20" y="540" width="120" height="60" as="geometry" />
        </mxCell>
        <mxCell id="vHzB5KihRxrcfw04qplD-41" value="" style="edgeStyle=orthogonalEdgeStyle;rounded=0;orthogonalLoop=1;jettySize=auto;html=1;" edge="1" parent="77e6c97f196da883-7" source="vHzB5KihRxrcfw04qplD-38" target="vHzB5KihRxrcfw04qplD-40">
          <mxGeometry relative="1" as="geometry" />
        </mxCell>
        <mxCell id="vHzB5KihRxrcfw04qplD-38" value="check规则" style="whiteSpace=wrap;html=1;rounded=1;" vertex="1" parent="77e6c97f196da883-7">
          <mxGeometry x="20" y="630" width="120" height="60" as="geometry" />
        </mxCell>
        <mxCell id="vHzB5KihRxrcfw04qplD-43" value="" style="edgeStyle=orthogonalEdgeStyle;rounded=0;orthogonalLoop=1;jettySize=auto;html=1;" edge="1" parent="77e6c97f196da883-7" source="vHzB5KihRxrcfw04qplD-40" target="vHzB5KihRxrcfw04qplD-42">
          <mxGeometry relative="1" as="geometry" />
        </mxCell>
        <mxCell id="vHzB5KihRxrcfw04qplD-40" value="初始化告警模块" style="whiteSpace=wrap;html=1;rounded=1;" vertex="1" parent="77e6c97f196da883-7">
          <mxGeometry x="20" y="710" width="120" height="60" as="geometry" />
        </mxCell>
        <mxCell id="vHzB5KihRxrcfw04qplD-45" value="" style="edgeStyle=orthogonalEdgeStyle;rounded=0;orthogonalLoop=1;jettySize=auto;html=1;" edge="1" parent="77e6c97f196da883-7" source="vHzB5KihRxrcfw04qplD-42" target="vHzB5KihRxrcfw04qplD-44">
          <mxGeometry relative="1" as="geometry" />
        </mxCell>
        <mxCell id="vHzB5KihRxrcfw04qplD-42" value="初始化指令下发管理模块" style="whiteSpace=wrap;html=1;rounded=1;" vertex="1" parent="77e6c97f196da883-7">
          <mxGeometry x="20" y="810" width="120" height="60" as="geometry" />
        </mxCell>
        <mxCell id="vHzB5KihRxrcfw04qplD-44" value="初始化数据管理模块" style="whiteSpace=wrap;html=1;rounded=1;" vertex="1" parent="77e6c97f196da883-7">
          <mxGeometry x="20" y="900" width="120" height="60" as="geometry" />
        </mxCell>
        <mxCell id="vHzB5KihRxrcfw04qplD-2" value="" style="endArrow=classic;html=1;rounded=0;exitX=1;exitY=0.5;exitDx=0;exitDy=0;entryX=0;entryY=0.5;entryDx=0;entryDy=0;" edge="1" parent="77e6c97f196da883-1" source="77e6c97f196da883-9" target="vHzB5KihRxrcfw04qplD-1">
          <mxGeometry width="50" height="50" relative="1" as="geometry">
            <mxPoint x="310" y="410" as="sourcePoint" />
            <mxPoint x="360" y="360" as="targetPoint" />
          </mxGeometry>
        </mxCell>
        <mxCell id="vHzB5KihRxrcfw04qplD-21" value="DataManage::init()" style="swimlane;html=1;startSize=20;" vertex="1" parent="77e6c97f196da883-1">
          <mxGeometry x="320" y="20" width="180" height="2460" as="geometry" />
        </mxCell>
        <mxCell id="vHzB5KihRxrcfw04qplD-36" value="初始化订单回执" style="whiteSpace=wrap;html=1;rounded=1;" vertex="1" parent="vHzB5KihRxrcfw04qplD-21">
          <mxGeometry x="20" y="900" width="120" height="60" as="geometry" />
        </mxCell>
        <mxCell id="vHzB5KihRxrcfw04qplD-54" value="" style="edgeStyle=orthogonalEdgeStyle;rounded=0;orthogonalLoop=1;jettySize=auto;html=1;" edge="1" parent="vHzB5KihRxrcfw04qplD-21" source="vHzB5KihRxrcfw04qplD-51" target="vHzB5KihRxrcfw04qplD-53">
          <mxGeometry relative="1" as="geometry" />
        </mxCell>
        <mxCell id="vHzB5KihRxrcfw04qplD-51" value="配置心跳检测间隔" style="rounded=1;whiteSpace=wrap;html=1;" vertex="1" parent="vHzB5KihRxrcfw04qplD-21">
          <mxGeometry x="20" y="1020" width="120" height="60" as="geometry" />
        </mxCell>
        <mxCell id="vHzB5KihRxrcfw04qplD-68" value="" style="edgeStyle=orthogonalEdgeStyle;rounded=0;orthogonalLoop=1;jettySize=auto;html=1;" edge="1" parent="vHzB5KihRxrcfw04qplD-21" source="vHzB5KihRxrcfw04qplD-53" target="vHzB5KihRxrcfw04qplD-67">
          <mxGeometry relative="1" as="geometry" />
        </mxCell>
        <mxCell id="vHzB5KihRxrcfw04qplD-53" value="初始化kafkaconsumer" style="whiteSpace=wrap;html=1;rounded=1;" vertex="1" parent="vHzB5KihRxrcfw04qplD-21">
          <mxGeometry x="20" y="1110" width="120" height="60" as="geometry" />
        </mxCell>
        <mxCell id="vHzB5KihRxrcfw04qplD-67" value="初始化行情处理模块" style="whiteSpace=wrap;html=1;rounded=1;" vertex="1" parent="vHzB5KihRxrcfw04qplD-21">
          <mxGeometry x="20" y="1200" width="120" height="60" as="geometry" />
        </mxCell>
        <mxCell id="vHzB5KihRxrcfw04qplD-83" value="初始化拉抬打压模块" style="rounded=1;whiteSpace=wrap;html=1;" vertex="1" parent="vHzB5KihRxrcfw04qplD-21">
          <mxGeometry x="20" y="1680" width="120" height="60" as="geometry" />
        </mxCell>
        <mxCell id="vHzB5KihRxrcfw04qplD-31" value="OrderReciptHandler::init()" style="swimlane;html=1;startSize=20;" vertex="1" parent="77e6c97f196da883-1">
          <mxGeometry x="500" y="20" width="160" height="2460" as="geometry" />
        </mxCell>
        <mxCell id="vHzB5KihRxrcfw04qplD-49" value="获取规则和股票数据（证券信息、账户信息等）" style="rounded=1;whiteSpace=wrap;html=1;" vertex="1" parent="vHzB5KihRxrcfw04qplD-31">
          <mxGeometry x="20" y="900" width="120" height="60" as="geometry" />
        </mxCell>
        <mxCell id="vHzB5KihRxrcfw04qplD-46" value="" style="endArrow=classic;html=1;rounded=0;exitX=1;exitY=0.5;exitDx=0;exitDy=0;entryX=0;entryY=0.5;entryDx=0;entryDy=0;" edge="1" parent="77e6c97f196da883-1" source="vHzB5KihRxrcfw04qplD-44" target="vHzB5KihRxrcfw04qplD-36">
          <mxGeometry width="50" height="50" relative="1" as="geometry">
            <mxPoint x="340" y="1090" as="sourcePoint" />
            <mxPoint x="390" y="1040" as="targetPoint" />
          </mxGeometry>
        </mxCell>
        <mxCell id="vHzB5KihRxrcfw04qplD-50" value="" style="endArrow=classic;html=1;rounded=0;entryX=0;entryY=0.5;entryDx=0;entryDy=0;" edge="1" parent="77e6c97f196da883-1" source="vHzB5KihRxrcfw04qplD-36" target="vHzB5KihRxrcfw04qplD-49">
          <mxGeometry width="50" height="50" relative="1" as="geometry">
            <mxPoint x="460" y="990" as="sourcePoint" />
            <mxPoint x="510" y="940" as="targetPoint" />
          </mxGeometry>
        </mxCell>
        <mxCell id="vHzB5KihRxrcfw04qplD-52" value="" style="endArrow=classic;html=1;rounded=0;exitX=0.5;exitY=1;exitDx=0;exitDy=0;entryX=1;entryY=0.5;entryDx=0;entryDy=0;" edge="1" parent="77e6c97f196da883-1" source="vHzB5KihRxrcfw04qplD-49" target="vHzB5KihRxrcfw04qplD-51">
          <mxGeometry width="50" height="50" relative="1" as="geometry">
            <mxPoint x="440" y="1120" as="sourcePoint" />
            <mxPoint x="490" y="1070" as="targetPoint" />
            <Array as="points">
              <mxPoint x="580" y="1070" />
            </Array>
          </mxGeometry>
        </mxCell>
        <mxCell id="vHzB5KihRxrcfw04qplD-74" value="MarketManager::init()" style="swimlane;html=1;startSize=20;" vertex="1" parent="77e6c97f196da883-1">
          <mxGeometry x="660" y="20" width="160" height="2460" as="geometry" />
        </mxCell>
        <mxCell id="vHzB5KihRxrcfw04qplD-82" value="" style="edgeStyle=orthogonalEdgeStyle;rounded=0;orthogonalLoop=1;jettySize=auto;html=1;" edge="1" parent="vHzB5KihRxrcfw04qplD-74" source="vHzB5KihRxrcfw04qplD-79" target="vHzB5KihRxrcfw04qplD-81">
          <mxGeometry relative="1" as="geometry" />
        </mxCell>
        <mxCell id="vHzB5KihRxrcfw04qplD-79" value="读取行情配置" style="rounded=1;whiteSpace=wrap;html=1;" vertex="1" parent="vHzB5KihRxrcfw04qplD-74">
          <mxGeometry x="20" y="1200" width="120" height="60" as="geometry" />
        </mxCell>
        <mxCell id="vHzB5KihRxrcfw04qplD-81" value="启动行情处理模块（接华泰那边）" style="whiteSpace=wrap;html=1;rounded=1;" vertex="1" parent="vHzB5KihRxrcfw04qplD-74">
          <mxGeometry x="20" y="1300" width="120" height="60" as="geometry" />
        </mxCell>
        <mxCell id="vHzB5KihRxrcfw04qplD-80" value="" style="endArrow=classic;html=1;rounded=0;entryX=0;entryY=0.5;entryDx=0;entryDy=0;exitX=1;exitY=0.5;exitDx=0;exitDy=0;" edge="1" parent="77e6c97f196da883-1" source="vHzB5KihRxrcfw04qplD-67" target="vHzB5KihRxrcfw04qplD-79">
          <mxGeometry width="50" height="50" relative="1" as="geometry">
            <mxPoint x="430" y="1280" as="sourcePoint" />
            <mxPoint x="480" y="1230" as="targetPoint" />
          </mxGeometry>
        </mxCell>
        <mxCell id="vHzB5KihRxrcfw04qplD-85" value="HuaTaiMarket::init()" style="swimlane;html=1;startSize=20;" vertex="1" parent="77e6c97f196da883-1">
          <mxGeometry x="820" y="20" width="160" height="2460" as="geometry" />
        </mxCell>
        <mxCell id="vHzB5KihRxrcfw04qplD-93" value="" style="edgeStyle=orthogonalEdgeStyle;rounded=0;orthogonalLoop=1;jettySize=auto;html=1;" edge="1" parent="vHzB5KihRxrcfw04qplD-85" source="vHzB5KihRxrcfw04qplD-90" target="vHzB5KihRxrcfw04qplD-92">
          <mxGeometry relative="1" as="geometry" />
        </mxCell>
        <mxCell id="vHzB5KihRxrcfw04qplD-90" value="初始化股票行情" style="rounded=1;whiteSpace=wrap;html=1;" vertex="1" parent="vHzB5KihRxrcfw04qplD-85">
          <mxGeometry x="20" y="1300" width="120" height="60" as="geometry" />
        </mxCell>
        <mxCell id="vHzB5KihRxrcfw04qplD-95" value="" style="edgeStyle=orthogonalEdgeStyle;rounded=0;orthogonalLoop=1;jettySize=auto;html=1;" edge="1" parent="vHzB5KihRxrcfw04qplD-85" source="vHzB5KihRxrcfw04qplD-92" target="vHzB5KihRxrcfw04qplD-94">
          <mxGeometry relative="1" as="geometry" />
        </mxCell>
        <mxCell id="vHzB5KihRxrcfw04qplD-92" value="timer消息处理（作用时定时触发，则下发当前行情快照）" style="whiteSpace=wrap;html=1;rounded=1;" vertex="1" parent="vHzB5KihRxrcfw04qplD-85">
          <mxGeometry x="20" y="1390" width="120" height="60" as="geometry" />
        </mxCell>
        <mxCell id="vHzB5KihRxrcfw04qplD-97" value="" style="edgeStyle=orthogonalEdgeStyle;rounded=0;orthogonalLoop=1;jettySize=auto;html=1;" edge="1" parent="vHzB5KihRxrcfw04qplD-85" source="vHzB5KihRxrcfw04qplD-94" target="vHzB5KihRxrcfw04qplD-96">
          <mxGeometry relative="1" as="geometry" />
        </mxCell>
        <mxCell id="vHzB5KihRxrcfw04qplD-94" value="自营成交模块消息处理（将定位到的股票）" style="whiteSpace=wrap;html=1;rounded=1;" vertex="1" parent="vHzB5KihRxrcfw04qplD-85">
          <mxGeometry x="20" y="1480" width="120" height="60" as="geometry" />
        </mxCell>
        <mxCell id="vHzB5KihRxrcfw04qplD-99" value="" style="edgeStyle=orthogonalEdgeStyle;rounded=0;orthogonalLoop=1;jettySize=auto;html=1;" edge="1" parent="vHzB5KihRxrcfw04qplD-85" source="vHzB5KihRxrcfw04qplD-96" target="vHzB5KihRxrcfw04qplD-98">
          <mxGeometry relative="1" as="geometry" />
        </mxCell>
        <mxCell id="vHzB5KihRxrcfw04qplD-96" value="登陆并订阅行情（华泰服务器UDP）" style="whiteSpace=wrap;html=1;rounded=1;" vertex="1" parent="vHzB5KihRxrcfw04qplD-85">
          <mxGeometry x="20" y="1580" width="120" height="60" as="geometry" />
        </mxCell>
        <mxCell id="vHzB5KihRxrcfw04qplD-98" value="启动打印结果线程，打印信息" style="whiteSpace=wrap;html=1;rounded=1;" vertex="1" parent="vHzB5KihRxrcfw04qplD-85">
          <mxGeometry x="20" y="1680" width="120" height="60" as="geometry" />
        </mxCell>
        <mxCell id="vHzB5KihRxrcfw04qplD-91" value="" style="endArrow=classic;html=1;rounded=0;exitX=1;exitY=0.5;exitDx=0;exitDy=0;entryX=0;entryY=0.5;entryDx=0;entryDy=0;" edge="1" parent="77e6c97f196da883-1" source="vHzB5KihRxrcfw04qplD-81" target="vHzB5KihRxrcfw04qplD-90">
          <mxGeometry width="50" height="50" relative="1" as="geometry">
            <mxPoint x="850" y="1490" as="sourcePoint" />
            <mxPoint x="900" y="1440" as="targetPoint" />
          </mxGeometry>
        </mxCell>
        <mxCell id="vHzB5KihRxrcfw04qplD-100" value="" style="endArrow=classic;html=1;rounded=0;entryX=1;entryY=0.5;entryDx=0;entryDy=0;exitX=0;exitY=0.5;exitDx=0;exitDy=0;" edge="1" parent="77e6c97f196da883-1" source="vHzB5KihRxrcfw04qplD-98" target="vHzB5KihRxrcfw04qplD-83">
          <mxGeometry width="50" height="50" relative="1" as="geometry">
            <mxPoint x="550" y="1800" as="sourcePoint" />
            <mxPoint x="600" y="1750" as="targetPoint" />
          </mxGeometry>
        </mxCell>
      </root>
    </mxGraphModel>
  </diagram>
</mxfile>
